<svg xmlns="http://www.w3.org/2000/svg" width="1600" height="980" viewBox="0 0 1600 980" role="img" aria-labelledby="title desc">
  <title id="title">Tesla License Plate Scanner dashboard preview</title>
  <desc id="desc">Synthetic light-mode preview based on the dashboard's real overview layout, including the icon rail, search bar, scan button, KPI cards, detection chart, live scanner, and review tables.</desc>
  <defs>
    <linearGradient id="logo" x1="0" y1="0" x2="1" y2="1"><stop stop-color="#6d28d9"/><stop offset="1" stop-color="#2563eb"/></linearGradient>
    <linearGradient id="button" x1="0" y1="0" x2="1" y2="1"><stop stop-color="#6d28d9"/><stop offset="1" stop-color="#2563eb"/></linearGradient>
    <filter id="shadow" x="-15%" y="-15%" width="130%" height="140%"><feDropShadow dx="0" dy="10" stdDeviation="16" flood-color="#0f172a" flood-opacity=".08"/></filter>
    <style>
      .t{font-family:Arial,Helvetica,sans-serif}.muted{fill:#64748b}.dark{fill:#0f172a}.thin{stroke:#e5e7eb}.small{font-size:13px}.med{font-size:15px}.title{font-size:28px;font-weight:700}.cardtitle{font-size:17px;font-weight:700}.kpi{font-size:34px;font-weight:700}.grid{stroke:#e7ecf5;stroke-width:1}.line{fill:none;stroke:#6d28d9;stroke-width:4;stroke-linecap:round;stroke-linejoin:round}.dot{fill:#6d28d9;stroke:#fff;stroke-width:3}.pill{font-size:12px;font-weight:700}.tableh{font-size:12px;font-weight:700;fill:#64748b}.table{font-size:14px;fill:#334155}.chip{font-size:12px;font-weight:700}.icon{fill:#64748b}.active{fill:#6d28d9}
    </style>
  </defs>
  <rect width="1600" height="980" fill="#f3f5fb"/>
  <rect x="18" y="18" width="1564" height="944" rx="20" fill="#f8fafc" stroke="#e5e7eb"/>
  <!-- sidebar -->
  <rect x="18" y="18" width="86" height="944" rx="20" fill="#ffffff" stroke="#e5e7eb"/>
  <rect x="39" y="42" width="44" height="44" rx="14" fill="url(#logo)"/>
  <text x="61" y="71" text-anchor="middle" class="t" font-size="20" font-weight="800" fill="#fff">T</text>
  <g>
    <rect x="31" y="116" width="60" height="60" rx="16" fill="#f2edff" stroke="#d8c8ff"/>
    <rect x="53" y="137" width="16" height="16" rx="4" fill="#6d28d9"/>
    <path d="M52 211h18v5H52zm0 9h18v5H52zm0 9h18v5H52z" class="icon"/>
    <path d="M53 283h16v17H53zM56 279h10v3H56z" class="icon"/>
    <path d="M51 353h20v16H51zM54 349h14v3H54z" class="icon"/>
    <path d="M51 421h20v16H51zM54 417h14v3H54z" class="icon"/>
    <path d="M52 489h18v17H52zM55 485h12v3H55z" class="icon"/>
    <path d="M52 559h18v18H52z" class="icon"/>
    <path d="M52 629h18v18H52zM55 626h12v3H55z" class="icon"/>
    <rect x="31" y="842" width="60" height="70" rx="16" fill="#f8fafc" stroke="#e5e7eb"/>
    <circle cx="61" cy="863" r="5" fill="#16a34a"/><text x="61" y="889" text-anchor="middle" class="t muted" font-size="9">ONLINE</text>
  </g>
  <!-- appbar -->
  <rect x="104" y="18" width="1478" height="70" rx="0" fill="#ffffff" fill-opacity=".78"/>
  <line x1="104" y1="88" x2="1582" y2="88" class="thin"/>
  <rect x="132" y="35" width="620" height="38" rx="19" fill="#fff" stroke="#e5e7eb"/>
  <circle cx="158" cy="54" r="7" fill="none" stroke="#64748b" stroke-width="2"/><path d="M163 60l6 6" stroke="#64748b" stroke-width="2" stroke-linecap="round"/>
  <text x="182" y="59" class="t muted med">Search plates…</text>
  <rect x="1250" y="33" width="112" height="42" rx="13" fill="url(#button)"/>
  <text x="1306" y="59" text-anchor="middle" class="t" font-size="14" font-weight="700" fill="#fff">Scan now</text>
  <rect x="1380" y="36" width="164" height="36" rx="18" fill="#fff" stroke="#e5e7eb"/>
  <circle cx="1400" cy="54" r="5" fill="#16a34a"/><text x="1413" y="59" class="t muted small">Scanner online</text>
  <!-- title -->
  <text x="132" y="130" class="t title dark">Overview</text>
  <text x="132" y="154" class="t muted med">License plate captures, confidence and review workflow</text>
  <rect x="1415" y="113" width="129" height="36" rx="12" fill="#fff" stroke="#e5e7eb"/>
  <text x="1479" y="136" text-anchor="middle" class="t dark small" font-weight="700">Last 7 days⌄</text>
  <!-- KPIs -->
  <g filter="url(#shadow)">
    <rect x="132" y="180" width="265" height="112" rx="15" fill="#fff"/>
    <rect x="415" y="180" width="265" height="112" rx="15" fill="#fff"/>
    <rect x="698" y="180" width="265" height="112" rx="15" fill="#fff"/>
    <rect x="981" y="180" width="265" height="112" rx="15" fill="#fff"/>
  </g>
  <rect x="132" y="180" width="7" height="112" rx="3.5" fill="#2563eb"/><rect x="415" y="180" width="7" height="112" rx="3.5" fill="#6d28d9"/><rect x="698" y="180" width="7" height="112" rx="3.5" fill="#16a34a"/><rect x="981" y="180" width="7" height="112" rx="3.5" fill="#f59e0b"/>
  <g class="t"><text x="159" y="219" class="muted small">CLIPS PROCESSED</text><text x="159" y="262" class="dark kpi">1,284</text><text x="442" y="219" class="muted small">PLATE DETECTIONS</text><text x="442" y="262" class="dark kpi">318</text><text x="725" y="219" class="muted small">UNIQUE PLATES</text><text x="725" y="262" class="dark kpi">167</text><text x="1008" y="219" class="muted small">OBJECTS RECORDED</text><text x="1008" y="262" class="dark kpi">742</text></g>
  <!-- left column card -->
  <g filter="url(#shadow)"><rect x="132" y="318" width="855" height="602" rx="16" fill="#fff"/></g>
  <text x="158" y="356" class="t cardtitle dark">Detections over time</text>
  <rect x="809" y="335" width="147" height="28" rx="14" fill="#e9f8ef"/><text x="882" y="354" text-anchor="middle" class="t" font-size="12" font-weight="700" fill="#15803d">Today 24</text>
  <line x1="158" y1="401" x2="960" y2="401" class="grid"/><line x1="158" y1="449" x2="960" y2="449" class="grid"/><line x1="158" y1="497" x2="960" y2="497" class="grid"/><line x1="158" y1="545" x2="960" y2="545" class="grid"/>
  <text x="158" y="389" class="t muted small">max 38</text>
  <polyline points="170,518 283,491 396,509 509,438 622,472 735,426 848,454 952,397" class="line"/>
  <g><circle cx="170" cy="518" r="5" class="dot"/><circle cx="283" cy="491" r="5" class="dot"/><circle cx="396" cy="509" r="5" class="dot"/><circle cx="509" cy="438" r="5" class="dot"/><circle cx="622" cy="472" r="5" class="dot"/><circle cx="735" cy="426" r="5" class="dot"/><circle cx="848" cy="454" r="5" class="dot"/><circle cx="952" cy="397" r="5" class="dot"/></g>
  <g class="t muted small"><text x="170" y="575" text-anchor="middle">06/19</text><text x="396" y="575" text-anchor="middle">06/21</text><text x="622" y="575" text-anchor="middle">06/23</text><text x="848" y="575" text-anchor="middle">06/25</text><text x="952" y="575" text-anchor="middle">06/26</text></g>
  <text x="158" y="619" class="t muted small">RECENT CAPTURES</text>
  <line x1="158" y1="642" x2="960" y2="642" class="thin"/>
  <g class="t tableh"><text x="182" y="670">PREVIEW</text><text x="315" y="670">PLATE</text><text x="464" y="670">WHEN</text><text x="632" y="670">CAMERA</text><text x="788" y="670">CONF.</text></g>
  <g>
    <rect x="178" y="689" width="106" height="57" rx="8" fill="#dbeafe"/><path d="M181 730l28-23 19 17 20-25 35 33v12h-102z" fill="#93c5fd"/><rect x="313" y="704" width="84" height="27" rx="8" fill="#f1edff"/><text x="355" y="722" text-anchor="middle" class="t chip" fill="#6d28d9">DEMO-84X</text><text x="464" y="721" class="t table">Today · 6:42 PM</text><text x="632" y="721" class="t table">Left Repeater</text><rect x="788" y="704" width="48" height="26" rx="13" fill="#e9f8ef"/><text x="812" y="722" text-anchor="middle" class="t chip" fill="#15803d">91%</text>
    <line x1="158" y1="759" x2="960" y2="759" class="thin"/>
    <rect x="178" y="776" width="106" height="57" rx="8" fill="#ede9fe"/><path d="M181 814l30-20 17 12 17-22 37 31v18h-101z" fill="#c4b5fd"/><rect x="313" y="791" width="84" height="27" rx="8" fill="#f1edff"/><text x="355" y="809" text-anchor="middle" class="t chip" fill="#6d28d9">DEMO-17Q</text><text x="464" y="808" class="t table">Today · 5:16 PM</text><text x="632" y="808" class="t table">Front</text><rect x="788" y="791" width="48" height="26" rx="13" fill="#fff7df"/><text x="812" y="809" text-anchor="middle" class="t chip" fill="#b45309">64%</text>
  </g>
  <!-- right col -->
  <g filter="url(#shadow)"><rect x="1012" y="318" width="532" height="214" rx="16" fill="#fff"/><rect x="1012" y="550" width="532" height="178" rx="16" fill="#fff"/><rect x="1012" y="746" width="532" height="174" rx="16" fill="#fff"/></g>
  <text x="1038" y="356" class="t cardtitle dark">Live scanner</text><rect x="1454" y="335" width="62" height="27" rx="14" fill="#e9f8ef"/><text x="1485" y="354" text-anchor="middle" class="t" font-size="11" font-weight="700" fill="#15803d">ONLINE</text>
  <g class="t"><text x="1038" y="396" class="muted med">Status</text><text x="1210" y="396" class="dark med" font-weight="700">Scanning</text><text x="1038" y="427" class="muted med">Task</text><text x="1210" y="427" class="dark med">Sampling RecentClips</text><text x="1038" y="458" class="muted med">Queue</text><text x="1210" y="458" class="dark med">12 clips</text><text x="1038" y="489" class="muted med">CPAI</text><text x="1210" y="489" class="dark med" font-weight="700">Reachable · 43ms</text></g>
  <rect x="1038" y="505" width="479" height="12" rx="6" fill="#eff2f7"/><rect x="1038" y="505" width="316" height="12" rx="6" fill="#6d28d9"/>
  <text x="1038" y="589" class="t cardtitle dark">Top plates</text><text x="1442" y="589" class="t muted small">most frequent</text>
  <g class="t tableh"><text x="1038" y="621">PLATE</text><text x="1260" y="621">COUNT</text><text x="1364" y="621">LAST SEEN</text></g>
  <line x1="1038" y1="634" x2="1517" y2="634" class="thin"/><text x="1038" y="662" class="t" font-size="14" font-weight="700" fill="#6d28d9">DEMO-84X</text><text x="1260" y="662" class="t table">7</text><text x="1364" y="662" class="t table">Today 6:42 PM</text><line x1="1038" y1="677" x2="1517" y2="677" class="thin"/><text x="1038" y="706" class="t" font-size="14" font-weight="700" fill="#6d28d9">DEMO-17Q</text><text x="1260" y="706" class="t table">4</text><text x="1364" y="706" class="t table">Today 5:16 PM</text>
  <text x="1038" y="785" class="t cardtitle dark">Recent objects</text><text x="1458" y="785" class="t muted small">overview</text>
  <rect x="1038" y="807" width="88" height="71" rx="8" fill="#dbeafe"/><path d="M1043 857l21-21 16 13 17-27 25 31v19h-80z" fill="#93c5fd"/><rect x="1142" y="817" width="80" height="27" rx="9" fill="#f2edff"/><text x="1182" y="835" text-anchor="middle" class="t chip" fill="#6d28d9">vehicle</text><text x="1142" y="865" class="t muted small">Today · 6:41 PM</text>
  <!-- footer synthetic label -->
  <rect x="131" y="935" width="316" height="18" rx="9" fill="#e8eef9"/><text x="289" y="949" text-anchor="middle" class="t" font-size="10" fill="#64748b">SYNTHETIC PREVIEW · NO REAL PLATE OR VEHICLE DATA</text>
</svg>
